<svg xmlns="http://www.w3.org/2000/svg" width="34" height="34" viewBox="0 0 34 34"><g><g><path fill="#55aec6" d="M12 17a5 5 0 1 0 10 0 5 5 0 0 0-10 0zm13.747-6.67a2.083 2.083 0 1 1 0-4.167 2.083 2.083 0 0 1 0 4.167zM17 8.663c4.6 0 8.33 3.731 8.33 8.337 0 4.6-3.73 8.33-8.33 8.33-4.606 0-8.337-3.73-8.337-8.33A8.335 8.335 0 0 1 17 8.663zM10.127.43C8.35.513 7.143.792 6.08 1.205a8.833 8.833 0 0 0-2.953 1.922A8.81 8.81 0 0 0 1.205 6.08C.792 7.143.513 8.35.43 10.127.347 11.903.33 12.468.33 17c0 4.525.022 5.09.1 6.867.083 1.775.362 2.985.775 4.046a8.712 8.712 0 0 0 1.922 2.954 8.824 8.824 0 0 0 2.953 1.921c1.063.412 2.272.692 4.047.775 1.776.084 2.341.1 6.873.1 4.525 0 5.09-.021 6.867-.1 1.775-.083 2.985-.363 4.046-.775a8.727 8.727 0 0 0 2.954-1.921 8.684 8.684 0 0 0 1.921-2.954c.412-1.063.692-2.271.775-4.046.084-1.777.1-2.342.1-6.867 0-4.532-.021-5.097-.1-6.873-.083-1.775-.363-2.985-.775-4.047a8.848 8.848 0 0 0-1.921-2.953 8.239 8.239 0 0 0-2.954-1.922C26.85.792 25.642.513 23.867.43 22.09.347 21.525.33 17 .33c-4.532 0-5.097.022-6.873.1z"/></g></g></svg>