<svg xmlns="http://www.w3.org/2000/svg" width="108" height="108" viewBox="0 0 54 54"><g><g><g><path fill="#fff" d="M27 54c14.912 0 27-12.088 27-27S41.912 0 27 0 0 12.088 0 27s12.088 27 27 27z"/></g><g><g><path fill="#4a4a4a" d="M34.47 14.499a.995.995 0 0 0-.557-.895.968.968 0 0 0-1.054.12l-8.809 7.018 10.42 10.42V14.499z"/></g><g><path fill="#4a4a4a" d="M40.146 39.64l-25.85-25.85a.995.995 0 0 0-1.405 1.407l6.255 6.257h-.582c-.617 0-1.154.279-1.511.716a1.938 1.938 0 0 0-.478 1.273v7.953c0 1.094.895 1.989 1.989 1.989h4.613l9.684 7.735c.178.139.397.218.616.218.14 0 .298-.04.437-.1a.995.995 0 0 0 .557-.894V36.78l4.267 4.267a.992.992 0 0 0 1.408.002.997.997 0 0 0 0-1.408z"/></g></g></g></g></svg>