<?xml version="1.0" encoding="UTF-8"?>
<svg width="54px" height="54px" viewBox="0 0 54 54" version="1.1" xmlns="http://www.w3.org/2000/svg" xmlns:xlink="http://www.w3.org/1999/xlink">
    <!-- Generator: Sketch 52.4 (67378) - http://www.bohemiancoding.com/sketch -->
    <title> sound</title>
    <desc>Created with Sketch.</desc>
    <g id="Page-1" stroke="none" stroke-width="1" fill="none" fill-rule="evenodd">
        <g id="sound-(1)" transform="translate(-72.000000, 0.000000)">
            <g id="-sound" transform="translate(72.000000, 0.000000)">
                <path d="M27,54 C41.912,54 54,41.912 54,27 C54,12.088 41.912,0 27,0 C12.088,0 0,12.088 0,27 C0,41.912 12.088,54 27,54 Z" id="Path" fill="#FFFFFF"></path>
                <g id="Group" transform="translate(16.000000, 13.000000)">
                    <path d="M18.47,1.499 C18.4706075,1.11874211 18.254434,0.771389634 17.913,0.604 C17.5690727,0.430793635 17.1551901,0.477914998 16.859,0.724 L8.05,7.742 L18.4700013,18.162 L18.47,1.499 Z" id="Path" fill="#D27B7B"></path>
                    <path d="M0.575,14.0430888 C0.576664573,14.0430547 0.57833124,14.0430207 0.58,14.0429867 L0.58,10.442 C0.58,9.348 1.475,8.453 2.569,8.453 L7.182,8.453 L16.865,0.718 C17.045,0.579 17.263,0.5 17.482,0.5 C17.622,0.5 17.78,0.54 17.919,0.6 C18.2601097,0.767231166 18.4762253,1.11410263 18.476,1.494 L18.476,14.838 L18.471,27.344 C18.4712253,27.7238974 18.2551097,28.0707688 17.914,28.238 C17.775,28.298 17.617,28.338 17.477,28.338 C17.258,28.338 17.04,28.259 16.86,28.12 L7.177,20.385 L2.564,20.385 C1.47,20.385 0.575,19.49 0.575,18.396 L0.575,14.0430888 Z" id="Path" fill="#4A4A4A"></path>
                </g>
            </g>
        </g>
    </g>
</svg>